<svg width="24" height="24" viewBox="0 0 24 24" fill="none" xmlns="http://www.w3.org/2000/svg">
<rect width="24" height="24" fill="black"/>
<g id="Homepage - Search">
<rect width="1920" height="1080" transform="translate(-1171 -387)" fill="white"/>
<g id="Search">
<g id="div.RNNXgb">
<rect x="-502.5" y="-10.5" width="583" height="47" rx="23.5" fill="white"/>
<g id="div.SDkEP">
<g id="div.dRYYxd">
<g id="Button - Search by voice &#226;&#143;&#181; SVG" clip-path="url(#clip0_0_1)">
<g id="Frame">
<path id="Vector" d="M12 15C13.66 15 15 13.69 15 12.03V5.01C15 3.35 13.66 2 12 2C10.34 2 9 3.34 9 5.01V12.03C9 13.69 10.34 15 12 15Z" fill="#4285F4"/>
<path id="Vector_2" d="M11 18.08H13V22H11V18.08Z" fill="#34A853"/>
<path id="Vector_3" d="M7.05 16.87C5.78 15.54 5 14.04 5 12H7C7 13.45 7.56 14.42 8.47 15.38V15.7L7.32 16.88L7.05 16.87Z" fill="#FBBC05"/>
<path id="Vector_4" d="M12 16.93C11.3422 16.932 10.6906 16.796 10.0829 16.5299C9.47522 16.2638 8.9236 15.873 8.46 15.38L7.05 16.87C8.31 18.21 10.07 19 12 19C15.87 19 18.99 16.08 18.99 12H17C17 14.92 14.76 16.93 12 16.93Z" fill="#EA4335"/>
</g>
</g>
</g>
</g>
<rect x="-502.5" y="-10.5" width="583" height="47" rx="23.5" stroke="#DFE1E5"/>
</g>
</g>
</g>
<defs>
<clipPath id="clip0_0_1">
<rect width="24" height="24" fill="white"/>
</clipPath>
</defs>
</svg>
