<?xml version="1.0" encoding="UTF-8"?>
<!DOCTYPE svg PUBLIC "-//W3C//DTD SVG 1.1//EN" "http://www.w3.org/Graphics/SVG/1.1/DTD/svg11.dtd">
<svg xmlns="http://www.w3.org/2000/svg" version="1.1" width="2400px" height="2404px" style="shape-rendering:geometricPrecision; text-rendering:geometricPrecision; image-rendering:optimizeQuality; fill-rule:evenodd; clip-rule:evenodd" xmlns:xlink="http://www.w3.org/1999/xlink">
<g><path style="opacity:1" fill="#fefefe" d="M 1152.5,-0.5 C 1184.83,-0.5 1217.17,-0.5 1249.5,-0.5C 1337.62,3.29709 1424.28,16.6304 1509.5,39.5C 1794.75,120.712 2020.58,283.379 2187,527.5C 2340.11,762.938 2404.11,1020.94 2379,1301.5C 2343.39,1613.25 2208.89,1872.42 1975.5,2079C 1753.64,2266.87 1496.48,2362.71 1204,2366.5C 919.896,2364.59 668.063,2274.76 448.5,2097C 232.501,1915.38 96.0006,1685.55 39,1407.5C -13.4236,1118.71 32.243,846.706 176,591.5C 304.097,373.404 482.93,211.237 712.5,105C 776.416,76.5302 842.082,53.3635 909.5,35.5C 989.268,15.1046 1070.27,3.10459 1152.5,-0.5 Z"/></g>
<g><path style="opacity:0.985" fill="#e0e0e0" d="M 909.5,35.5 C 842.082,53.3635 776.416,76.5302 712.5,105C 482.93,211.237 304.097,373.404 176,591.5C 32.243,846.706 -13.4236,1118.71 39,1407.5C 96.0006,1685.55 232.501,1915.38 448.5,2097C 668.063,2274.76 919.896,2364.59 1204,2366.5C 1496.48,2362.71 1753.64,2266.87 1975.5,2079C 2208.89,1872.42 2343.39,1613.25 2379,1301.5C 2404.11,1020.94 2340.11,762.938 2187,527.5C 2020.58,283.379 1794.75,120.712 1509.5,39.5C 1728.25,98.5753 1915.75,209.242 2072,371.5C 2262.35,575.078 2371.51,816.411 2399.5,1095.5C 2399.5,1166.17 2399.5,1236.83 2399.5,1307.5C 2371.52,1586.55 2262.35,1827.89 2072,2031.5C 1875.85,2233.66 1637.35,2354.5 1356.5,2394C 1320.79,2398.41 1285.12,2401.58 1249.5,2403.5C 1217.5,2403.5 1185.5,2403.5 1153.5,2403.5C 870.996,2388.88 622.996,2290.05 409.5,2107C 187.348,1908.6 54.1813,1661.1 10,1364.5C 5.05501,1326.48 1.55501,1288.48 -0.5,1250.5C -0.5,1217.83 -0.5,1185.17 -0.5,1152.5C 15.7453,854.381 124.245,596.047 325,377.5C 486.368,207.683 681.201,93.6835 909.5,35.5 Z"/></g>
<g><path style="opacity:1" fill="#ea4335" d="M 768.5,1040.5 C 678.21,972.21 588.21,903.543 498.5,834.5C 589.38,653.883 728.047,524.383 914.5,446C 1109.94,369.227 1306.27,366.894 1503.5,439C 1593.03,474.232 1674.03,522.898 1746.5,585C 1748.01,585.837 1748.51,587.004 1748,588.5C 1669.71,666.45 1592.55,743.95 1516.5,821C 1386.88,721.01 1242.55,692.344 1083.5,735C 966.812,771.719 876.312,841.886 812,945.5C 794.249,975.669 779.749,1007.34 768.5,1040.5 Z"/></g>
<g><path style="opacity:1" fill="#fabc05" d="M 498.5,834.5 C 588.21,903.543 678.21,972.21 768.5,1040.5C 736.65,1140.13 736.65,1239.8 768.5,1339.5C 678.461,1408.51 588.461,1477.51 498.5,1546.5C 443.479,1434.05 415.813,1315.05 415.5,1189.5C 415.97,1064.63 443.637,946.296 498.5,834.5 Z"/></g>
<g><path style="opacity:1" fill="#4285f3" d="M 1743.5,1793.5 C 1657.86,1727.85 1572.52,1661.85 1487.5,1595.5C 1574.83,1538.4 1629.16,1458.4 1650.5,1355.5C 1506.83,1354.5 1363.17,1354.17 1219.5,1354.5C 1219.5,1251.17 1219.5,1147.83 1219.5,1044.5C 1469.17,1044.5 1718.83,1044.5 1968.5,1044.5C 1984.79,1111.88 1990.29,1180.21 1985,1249.5C 1978.71,1372.02 1948.04,1488.02 1893,1597.5C 1854.36,1671.31 1804.53,1736.65 1743.5,1793.5 Z"/></g>
<g><path style="opacity:1" fill="#34a853" d="M 768.5,1339.5 C 819.964,1486.13 918.631,1586.3 1064.5,1640C 1139.81,1665.03 1216.81,1672.03 1295.5,1661C 1364.32,1652.78 1428.32,1630.95 1487.5,1595.5C 1572.52,1661.85 1657.86,1727.85 1743.5,1793.5C 1651.45,1878.72 1544.12,1937.22 1421.5,1969C 1238.64,2014.35 1060.97,1999.35 888.5,1924C 746.018,1858.52 631.518,1760.35 545,1629.5C 527.955,1602.75 512.455,1575.08 498.5,1546.5C 588.461,1477.51 678.461,1408.51 768.5,1339.5 Z"/></g>
</svg>
