<svg width="24" height="24" viewBox="0 0 24 24" fill="none" xmlns="http://www.w3.org/2000/svg">
<g id="Frame">
<g id="Group">
<path id="Vector" d="M18.0088 20C19.1133 20 20.0088 19.1046 20.0088 18C20.0088 16.8954 19.1133 16 18.0088 16C16.9042 16 16.0088 16.8954 16.0088 18C16.0088 19.1046 16.9042 20 18.0088 20Z" fill="#34A853"/>
<path id="Vector_2" d="M12.0088 16C13.6656 16 15.0088 14.6569 15.0088 13C15.0088 11.3431 13.6656 10 12.0088 10C10.3519 10 9.00876 11.3431 9.00876 13C9.00876 14.6569 10.3519 16 12.0088 16Z" fill="#4285F4"/>
<path id="Vector_3" d="M3 16.9C3 19.1637 4.83625 21 7.1 21H12V19L6.9875 18.9875C5.8875 18.9875 5 17.9638 5 16.75V14.5H3V16.9Z" fill="#EA4335"/>
<path id="Vector_4" d="M21 9.1C21 6.83625 19.1637 5 16.9 5H14.5L17 7C18.1 7 19 8.03625 19 9.25V13H21V9.1Z" fill="#FBBC05"/>
<path id="Vector_5" d="M14 3H10L8.5 5H7.1C4.83625 5 3 6.83625 3 9.1V11.5H5V9.25C5 8.03625 5.9 7 7 7H17L14 3Z" fill="#4285F4"/>
</g>
</g>
</svg>
