<svg width="16" height="16" viewBox="0 0 16 16" fill="none" xmlns="http://www.w3.org/2000/svg">
<path d="M1.99976 4C3.09976 4 3.99976 3.1 3.99976 2C3.99976 0.9 3.09976 0 1.99976 0C0.899756 0 -0.000244141 0.9 -0.000244141 2C-0.000244141 3.1 0.899756 4 1.99976 4ZM7.99976 16C9.09976 16 9.99976 15.1 9.99976 14C9.99976 12.9 9.09976 12 7.99976 12C6.89976 12 5.99976 12.9 5.99976 14C5.99976 15.1 6.89976 16 7.99976 16ZM1.99976 16C3.09976 16 3.99976 15.1 3.99976 14C3.99976 12.9 3.09976 12 1.99976 12C0.899756 12 -0.000244141 12.9 -0.000244141 14C-0.000244141 15.1 0.899756 16 1.99976 16ZM1.99976 10C3.09976 10 3.99976 9.1 3.99976 8C3.99976 6.9 3.09976 6 1.99976 6C0.899756 6 -0.000244141 6.9 -0.000244141 8C-0.000244141 9.1 0.899756 10 1.99976 10ZM7.99976 10C9.09976 10 9.99976 9.1 9.99976 8C9.99976 6.9 9.09976 6 7.99976 6C6.89976 6 5.99976 6.9 5.99976 8C5.99976 9.1 6.89976 10 7.99976 10ZM11.9998 2C11.9998 3.1 12.8998 4 13.9998 4C15.0998 4 15.9998 3.1 15.9998 2C15.9998 0.9 15.0998 0 13.9998 0C12.8998 0 11.9998 0.9 11.9998 2ZM7.99976 4C9.09976 4 9.99976 3.1 9.99976 2C9.99976 0.9 9.09976 0 7.99976 0C6.89976 0 5.99976 0.9 5.99976 2C5.99976 3.1 6.89976 4 7.99976 4ZM13.9998 10C15.0998 10 15.9998 9.1 15.9998 8C15.9998 6.9 15.0998 6 13.9998 6C12.8998 6 11.9998 6.9 11.9998 8C11.9998 9.1 12.8998 10 13.9998 10ZM13.9998 16C15.0998 16 15.9998 15.1 15.9998 14C15.9998 12.9 15.0998 12 13.9998 12C12.8998 12 11.9998 12.9 11.9998 14C11.9998 15.1 12.8998 16 13.9998 16Z" fill="white" fill-opacity="0.87"/>
</svg>
