<svg width="24" height="24" viewBox="0 0 24 24" fill="none" xmlns="http://www.w3.org/2000/svg">
<path d="M13.8502 22.25H10.1502C9.41023 22.25 8.79023 21.71 8.70023 20.98L8.43023 19.09C8.16023 18.95 7.90023 18.8 7.64023 18.63L5.84023 19.35C5.14023 19.61 4.37023 19.32 4.03023 18.7L2.20023 15.53C1.85023 14.87 2.00023 14.09 2.56023 13.65L4.09023 12.46C4.08023 12.31 4.07023 12.16 4.07023 12C4.07023 11.85 4.08023 11.69 4.09023 11.54L2.57023 10.35C1.98023 9.9 1.83023 9.09 2.20023 8.47L4.05023 5.28C4.39023 4.66 5.16023 4.38 5.84023 4.65L7.65023 5.38C7.91023 5.21 8.17023 5.06 8.43023 4.92L8.70023 3.01C8.79023 2.31 9.41023 1.76 10.1402 1.76H13.8402C14.5802 1.76 15.2002 2.3 15.2902 3.03L15.5602 4.92C15.8302 5.06 16.0902 5.21 16.3502 5.38L18.1502 4.66C18.8602 4.4 19.6302 4.69 19.9702 5.31L21.8102 8.49C22.1702 9.15 22.0102 9.93 21.4502 10.37L19.9302 11.56C19.9402 11.71 19.9502 11.86 19.9502 12.02C19.9502 12.18 19.9402 12.33 19.9302 12.48L21.4502 13.67C22.0102 14.12 22.1702 14.9 21.8202 15.53L19.9602 18.75C19.6202 19.37 18.8502 19.65 18.1602 19.38L16.3602 18.66C16.1002 18.83 15.8402 18.98 15.5802 19.12L15.3102 21.03C15.2102 21.71 14.5902 22.25 13.8502 22.25ZM10.6202 20.25H13.3802L13.7502 17.7L14.2802 17.48C14.7202 17.3 15.1602 17.04 15.6202 16.7L16.0702 16.36L18.4502 17.32L19.8302 14.92L17.8002 13.34L17.8702 12.78C17.9002 12.52 17.9302 12.27 17.9302 12C17.9302 11.73 17.9002 11.47 17.8702 11.22L17.8002 10.66L19.8302 9.08L18.4402 6.68L16.0502 7.64L15.6002 7.29C15.1802 6.97 14.7302 6.71 14.2702 6.52L13.7502 6.3L13.3802 3.75H10.6202L10.2502 6.3L9.72023 6.51C9.28023 6.7 8.84023 6.95 8.38023 7.3L7.93023 7.63L5.55023 6.68L4.16023 9.07L6.19023 10.65L6.12023 11.21C6.08534 11.472 6.0653 11.7357 6.06023 12C6.06023 12.26 6.08023 12.53 6.12023 12.78L6.19023 13.34L4.16023 14.92L5.54023 17.32L7.93023 16.36L8.38023 16.71C8.81023 17.04 9.24023 17.29 9.71023 17.48L10.2402 17.7L10.6202 20.25Z" fill="#E8EAED"/>
<path d="M12 15.5C13.933 15.5 15.5 13.933 15.5 12C15.5 10.067 13.933 8.5 12 8.5C10.067 8.5 8.5 10.067 8.5 12C8.5 13.933 10.067 15.5 12 15.5Z" fill="#E8EAED"/>
</svg>
